<svg xmlns="http://www.w3.org/2000/svg" id="Ebene_2" viewBox="0 0 298.1 326.39"><g id="Ebene_1-2"><path d="M168.45,68.74c-2.17-3.14-6.96-9.52-11.44-15.41-5.1-6.71-9.81-12.8-9.81-12.8,0,0-3.71,4.86-8.1,10.65-4.95,6.53-10.78,14.26-13.15,17.56L57.42,165.39h39.14l50.16-70.93,19.17,28.28c3.51,5.11,7.99,11.66,10.86,15.5-5.11-.32-12.62-.32-19.01-.32h-26.84l-19.97,27.48h124.29l-66.78-96.65" style="fill:none; stroke:#fff; stroke-width:5px;"></path><line x1="169.18" y1="12.69" x2="147.32" y2="40.29" style="fill:none; stroke:#fff; stroke-width:5px;"></line><line x1="125.59" y1="12.69" x2="147.45" y2="40.29" style="fill:none; stroke:#fff; stroke-width:5px;"></line><g><path d="M205.51,272.85l1.91-2.91h-30.58v-15.5h27.26l1.71-2.62h-28.97v-14.97h28.38l1.91-2.97h-33.18v38.97h31.56Zm-39.74-4.49l-29.41-34.14c-.49-.58-.98-.76-1.37-.76-.88,0-1.66,.7-1.66,2.21v37.17h2.64v-34.72l29.46,34.2c.44,.53,.93,.7,1.32,.7,.93,0,1.66-.7,1.66-2.21v-36.93h-2.64v34.49Zm-39.93-15.03c0,12.29-5.82,17.24-18.11,17.24s-18.15-4.95-18.15-17.24,5.87-17.13,18.15-17.13,18.11,4.89,18.11,17.13m2.89,0c0-13.92-7-20.1-20.99-20.1s-20.99,6.18-20.99,20.1,7.05,20.16,20.99,20.16,20.99-6.23,20.99-20.16" style="fill:#fff; stroke:#fff; stroke-miterlimit:10;"></path><path d="M205.51,272.85l1.91-2.91h-30.58v-15.5h27.26l1.71-2.62h-28.97v-14.97h28.38l1.91-2.97h-33.18v38.97h31.56Zm-39.74-4.49l-29.41-34.14c-.49-.58-.98-.76-1.37-.76-.88,0-1.66,.7-1.66,2.21v37.17h2.64v-34.72l29.46,34.2c.44,.53,.93,.7,1.32,.7,.93,0,1.66-.7,1.66-2.21v-36.93h-2.64v34.49Zm-39.93-15.03c0,12.29-5.82,17.24-18.11,17.24s-18.15-4.95-18.15-17.24,5.87-17.13,18.15-17.13,18.11,4.89,18.11,17.13Zm2.89,0c0-13.92-7-20.1-20.99-20.1s-20.99,6.18-20.99,20.1,7.05,20.16,20.99,20.16,20.99-6.23,20.99-20.16Z" style="fill:#fff; stroke:#fff;"></path><path d="M271.61,215.48l-25.22-38.04c-.47-.7-1.28-1.34-2.33-1.34-.99,0-1.87,.7-2.27,1.34l-25.4,38.04h4.02l23.65-35.48,21.44,32.56h-32.45l-2.15,2.91h40.72Zm-59.19,0v-38.97h-3.44v17.24h-33.32v-17.24h-3.44v38.97h3.44v-18.76h33.32v18.76h3.44Zm-62.51-14.04c10.02,0,16.66-4.14,16.66-12.23s-6.7-12.7-16.66-12.7h-26.74l-2.33,2.97h27.9c8.45,0,14.39,2.91,14.39,9.73s-6.12,9.32-14.33,9.32h-27.79v16.95h3.38v-14.04h25.52Zm-34.9,14.04l2.27-2.91h-33.73v-36.06h-3.38v38.97h34.84Zm-38.74,0l-25.22-38.04c-.47-.7-1.28-1.34-2.33-1.34-.99,0-1.86,.7-2.27,1.34l-25.4,38.04h4.02l23.65-35.48,21.44,32.56H37.71l-2.16,2.91h40.72Z" style="fill:#fff; stroke:#fff; stroke-miterlimit:10;"></path><path d="M271.61,215.48l-25.22-38.04c-.47-.7-1.28-1.34-2.33-1.34-.99,0-1.87,.7-2.27,1.34l-25.4,38.04h4.02l23.65-35.48,21.44,32.56h-32.45l-2.15,2.91h40.72Zm-59.19,0v-38.97h-3.44v17.24h-33.32v-17.24h-3.44v38.97h3.44v-18.76h33.32v18.76h3.44Zm-62.51-14.04c10.02,0,16.66-4.14,16.66-12.23s-6.7-12.7-16.66-12.7h-26.74l-2.33,2.97h27.9c8.45,0,14.39,2.91,14.39,9.73s-6.12,9.32-14.33,9.32h-27.79v16.95h3.38v-14.04h25.52Zm-34.9,14.04l2.27-2.91h-33.73v-36.06h-3.38v38.97h34.84Zm-38.74,0l-25.22-38.04c-.47-.7-1.28-1.34-2.33-1.34-.99,0-1.86,.7-2.27,1.34l-25.4,38.04h4.02l23.65-35.48,21.44,32.56H37.71l-2.16,2.91h40.72Z" style="fill:none; stroke:#fff;"></path></g><polygon points="240.34 27.26 236.07 38.26 223.27 38.55 233.44 45.65 229.79 56.82 240.34 50.21 250.89 56.82 247.24 45.65 257.4 38.55 244.61 38.26 240.34 27.26" style="fill:#fff; stroke:#fff; stroke-miterlimit:10;"></polygon><polygon points="52.27 27.26 56.53 38.26 69.33 38.55 59.17 45.65 62.81 56.82 52.27 50.21 41.72 56.82 45.36 45.65 35.2 38.55 48 38.26 52.27 27.26" style="fill:#fff; stroke:#fff; stroke-miterlimit:10;"></polygon><polygon points="203.37 1.38 199.11 12.37 186.31 12.67 196.47 19.76 192.83 30.94 203.37 24.33 213.92 30.94 210.28 19.76 220.44 12.67 207.64 12.37 203.37 1.38" style="fill:#fff; stroke:#fff; stroke-miterlimit:10;"></polygon><polygon points="89.23 1.38 84.96 12.37 72.16 12.67 82.33 19.76 78.68 30.94 89.23 24.33 99.78 30.94 96.13 19.76 106.3 12.67 93.5 12.37 89.23 1.38" style="fill:#fff; stroke:#fff; stroke-miterlimit:10;"></polygon><path d="M289.62,228.55c-2.38-1.03-2.6-1.75-1.37-4.51,.79-1.77,1.33-2.37,2.12-2.36,.53,.01,.76,.08,2.03,.62l-2.78,6.24Zm5.37-5.09c1.57,.67,1.61,1.11,.38,3.86-1.23,2.75-1.83,2.96-4.73,1.71l3.53-7.91c-2.02-.9-2.58-1.07-3.34-1.09-1.54-.04-2.46,.85-3.66,3.56-1.78,4-1.31,5.34,2.45,7.02,3.83,1.71,5.12,1.18,6.89-2.8,1.56-3.51,1.47-5.02-.4-5.85-.04-.02-.21-.1-.38-.14l-.73,1.65Zm-13.7,14.63c1.31-2.37,2.37-2.67,4.83-1.31,1.7,.94,2.65,1.76,2.75,2.43,.1,.65-.14,1.49-.76,2.61-1.35,2.44-2.23,2.6-5.22,.95-1.44-.79-2.23-1.56-2.36-2.25-.09-.49,.2-1.42,.76-2.44m-2.15-7.17l-.85,1.54,4.81,2.66v.06c-.53-.06-.82,.02-1.24,.35-.64,.5-1.28,1.3-1.89,2.4-1.69,3.07-1.15,4.69,2.11,6.49,2.03,1.12,3.23,1.43,4.28,1.06,.93-.31,1.81-1.21,2.65-2.72,1.03-1.87,1.22-3.1,.61-4.11v-.02s1.11,.7,1.11,.7l.85-1.53-12.44-6.87Zm-4.09,15.29l-.96,1.47,8.34,5.42,.96-1.47-8.34-5.42Zm-3.57-2.32l-.96,1.47,1.38,.89,.96-1.47-1.38-.89Zm1.78,9.58c-.73-.55-1.05-.7-1.51-.72-.97-.03-1.97,.77-3.56,2.86-2.4,3.16-2.55,4.31-.78,5.65,1.27,.96,2.18,.97,3.25,0,.54-.46,1.95-2.08,3.04-3.48,.83-1.09,1.3-1.18,2.28-.44,1.17,.89,1.05,1.61-.64,3.85-.89,1.17-1.52,1.79-1.89,1.9-.42,.1-.91-.04-1.36-.39-.07-.05-.22-.17-.36-.3l-1.09,1.44c.15,.15,.34,.29,.44,.37,.75,.57,1.54,.72,2.25,.45,.91-.35,1.65-1.05,2.97-2.79,1.45-1.91,1.96-2.91,2.01-3.82,.02-.76-.41-1.51-1.21-2.11-1.34-1.02-2.47-.93-3.62,.2q-.33,.33-1.79,2.11t-1.65,1.86c-.45,.34-.89,.26-1.61-.28-1.1-.84-1.02-1.26,.63-3.44,1.68-2.22,1.97-2.35,3.12-1.51l1.06-1.4Zm-10.9,9.5l-3.1,3.45-1.77-1.59-1.17,1.3,1.77,1.59-1.12,1.25,.9,.81,1.12-1.25,4.53,4.07c.67,.6,.87,.75,1.25,.88,.91,.3,1.86-.16,3.11-1.54,1.62-1.8,1.66-3.15,.14-4.52-.11-.1-.33-.3-.57-.48l-1.09,1.21c.21,.15,.3,.24,.41,.34,1.16,1.04,1.19,1.52,.21,2.61-.9,1-1.36,1.03-2.28,.21l-4.53-4.07,3.1-3.45-.9-.81Zm-7.97,8.51l-1.28,1.2,3.92,4.16c1.65,1.75,1.52,2.9-.48,4.79-1.56,1.47-2.26,1.51-3.49,.21l-4.54-4.82-1.28,1.2,4.54,4.82c1.68,1.78,3.26,1.7,5.4-.32,1.52-1.43,2.14-2.66,1.89-3.83h.07s.8,1.03,.8,1.03l1.28-1.2-6.82-7.24Zm-14.45,13.91c2.48-1.93,2.97-1.85,5.14,.94,2.14,2.76,2.11,3.27-.39,5.21-2.5,1.94-2.97,1.85-5.17-.98-1.1-1.41-1.52-2.22-1.54-2.82,0-.59,.55-1.27,1.96-2.36m-.76-.98c-3.48,2.7-3.68,3.96-1.12,7.26,2.67,3.43,3.88,3.57,7.38,.85,3.5-2.72,3.69-3.95,1.09-7.3-2.64-3.4-3.85-3.53-7.36-.81m-19.68,14.11c2.42-1.33,3.31-1.05,4.74,1.55,1.63,2.95,1.43,3.93-.98,5.26-2.51,1.38-3.22,1.1-4.9-1.94-1.48-2.69-1.29-3.52,1.14-4.87m4.03-3.47l-1.53,.85,.72,1.14v.03c-1.1-.64-2.26-.49-4.04,.49-1.62,.9-2.51,1.75-2.82,2.73-.38,1.13-.13,2.11,1.09,4.32,1.1,2,1.85,2.7,3.03,2.93,.94,.16,2.1-.14,3.5-.91,.99-.55,1.69-1.05,2.17-1.61,.43-.5,.56-.85,.52-1.46l.04-.03,.97,1.75c.92,1.66,.54,2.48-1.74,3.73-2.35,1.29-2.86,1.26-3.75-.24l-1.47,.81c.52,.95,.84,1.31,1.36,1.56,.94,.48,2.22,.19,4.39-1.01,2.12-1.17,3.18-2.24,3.36-3.41,.09-.68-.08-1.32-.68-2.4l-5.12-9.27Zm-22.74,10.95l3.94,9.14,1.68-.72-2.37-5.5c-.82-1.9-.19-3.05,2.25-4.1,1.37-.59,2.14-.69,2.65-.31,.37,.26,.53,.51,.95,1.49l2.51,5.83,1.61-.69-2.56-5.95c-.54-1.25-.85-1.72-1.31-1.99-.9-.54-2.28-.41-4.1,.38-2.08,.9-3,1.78-3.09,3h-.03s-.51-1.27-.51-1.27l-1.61,.69Zm-5.06,1.65l-1.66,.57,3.25,9.4,1.66-.57-3.25-9.4Zm-1.39-4.03l-1.66,.57,.54,1.55,1.66-.57-.54-1.55Zm-4.73,5.97l-4.47,1.24-.64-2.3-1.69,.47,.64,2.3-1.61,.45,.32,1.17,1.61-.45,1.63,5.87c.24,.86,.33,1.1,.58,1.41,.61,.74,1.66,.86,3.45,.37,2.33-.65,3.09-1.77,2.55-3.74-.04-.14-.12-.43-.23-.71l-1.57,.43c.09,.24,.13,.36,.17,.51,.42,1.5,.19,1.92-1.23,2.31-1.29,.36-1.7,.14-2.03-1.05l-1.63-5.87,4.47-1.24-.32-1.17Zm-11.41,2.85l-1.71,.36,2.06,9.73,1.71-.36-2.06-9.73Zm-.88-4.17l-1.72,.36,.34,1.61,1.71-.36-.34-1.61Zm-10.33,11.22c2.61-.35,3.43,0,3.63,1.49,.08,.61-.02,1.03-.34,1.31-.49,.45-1.56,.79-3.12,1-2.48,.33-3.06,.04-3.28-1.6-.19-1.46,.33-1.83,3.11-2.2m-3.24-1.87l-.04-.32c-.15-1.14,.52-1.57,2.92-1.9,2.63-.35,3.17-.02,3.48,2.29l.16,1.18-.05,.03c-.28-.35-.48-.47-.91-.55-.75-.14-1.79-.13-3.06,.04-1.66,.22-2.81,.57-3.4,1.06-.61,.49-.91,1.56-.76,2.7,.3,2.22,1.58,2.84,4.9,2.4,2.33-.31,3.28-.74,3.9-1.77l.03,.02v1.07s1.75-.23,1.75-.23l-.87-6.5c-.37-2.72-1.57-3.36-5.43-2.84-3.81,.51-4.63,1.18-4.36,3.55l1.74-.23Zm-5.88-2.16l-1.88,.06-1.53,5.57-.46,1.74-.23,.86-.23,.86h-.05s-.26-.84-.26-.84l-.26-.85-.57-1.71-1.8-5.46-2.58,.08-1.47,5.57-.43,1.74-.23,.86-.21,.86h-.05s-.28-.84-.28-.84l-.29-.84-.57-1.71-1.88-5.46-1.85,.06,3.59,9.84,2.65-.08,1.45-5.57,.44-1.7,.21-.86,.21-.86h.05s.26,.84,.26,.84l.26,.82,.54,1.69,1.8,5.46,2.6-.08,3.06-10.05Zm-29.64,1.88c.12-.91,.09-1.26-.11-1.67-.46-.86-1.64-1.34-4.25-1.69-3.94-.53-5.01-.09-5.3,2.11-.21,1.58,.23,2.37,1.6,2.84,.67,.24,2.77,.67,4.53,.93,1.35,.18,1.67,.55,1.51,1.77-.2,1.46-.88,1.71-3.67,1.34-1.46-.19-2.31-.44-2.58-.71-.3-.32-.41-.81-.34-1.38,.01-.08,.04-.28,.09-.46l-1.79-.24c-.05,.21-.08,.44-.1,.57-.12,.93,.14,1.69,.72,2.18,.75,.62,1.72,.92,3.9,1.21,2.38,.32,3.5,.28,4.31-.13,.67-.36,1.11-1.1,1.24-2.09,.22-1.67-.4-2.61-1.96-3.06q-.45-.12-2.71-.51-2.14-.37-2.43-.52c-.52-.22-.67-.65-.55-1.54,.18-1.37,.59-1.51,3.3-1.15,2.76,.37,3.02,.56,2.86,1.97l1.74,.23Zm-14.06-4.95l-1.71-.36-2.06,9.73,1.72,.36,2.06-9.73Zm.88-4.17l-1.71-.36-.34,1.61,1.71,.36,.34-1.6Zm-25.4,1.27c.82-2.46,1.52-2.74,4.37-1.76,1.83,.63,2.47,1.13,2.53,1.91,.03,.53-.02,.76-.45,2.08l-6.46-2.23Zm5.53,4.91c-.53,1.62-.97,1.69-3.82,.71s-3.11-1.57-2.11-4.56l8.19,2.83c.72-2.09,.84-2.66,.8-3.42-.09-1.54-1.06-2.37-3.86-3.34-4.14-1.43-5.44-.84-6.78,3.04-1.37,3.97-.74,5.2,3.38,6.62,3.63,1.26,5.13,1.03,5.8-.9,.01-.04,.08-.22,.11-.39l-1.71-.59Zm-17.17-14.53l-4.16,9.04,1.59,.73,2.49-5.42c.41-.89,.74-1.37,1.12-1.64,.63-.44,1.62-.38,2.77,.15,1.29,.59,1.62,1.22,1.19,2.16l-.34,.74,1.57,.72,.28-.62c.81-1.76,.25-3.01-1.84-3.96-1.57-.72-2.6-.77-3.7-.16l-.04-.04,.64-.97-1.59-.73Zm-4.66-2.44l-1.52-.87-2.82,4.97c-1.19,2.09-2.32,2.31-4.72,.95-1.86-1.06-2.11-1.71-1.23-3.27l3.27-5.76-1.52-.87-3.27,5.76c-1.21,2.13-.66,3.62,1.9,5.07,1.81,1.03,3.17,1.26,4.21,.68l.02,.06-.75,1.07,1.52,.87,4.91-8.65Zm-12.32-7.44l-3.83-2.62,1.35-1.97-1.45-.99-1.35,1.97-1.38-.95-.69,1,1.38,.95-3.44,5.03c-.51,.74-.63,.96-.71,1.35-.17,.94,.4,1.83,1.94,2.88,2,1.37,3.34,1.23,4.5-.46,.08-.12,.25-.37,.4-.63l-1.34-.92c-.12,.22-.2,.33-.28,.45-.88,1.28-1.35,1.38-2.56,.54-1.11-.76-1.2-1.21-.5-2.23l3.44-5.03,3.83,2.62,.69-1Zm-17.29-13.2l-6.29,7.71,1.42,1.16,3.78-4.64c1.31-1.6,2.62-1.58,4.67,.1,1.16,.94,1.6,1.58,1.49,2.21-.06,.44-.21,.71-.88,1.53l-4.01,4.92,1.36,1.11,4.09-5.02c.86-1.06,1.13-1.55,1.16-2.08,.06-1.05-.69-2.21-2.23-3.47-1.76-1.43-2.96-1.84-4.09-1.35v-.03s.88-1.04,.88-1.04l-1.36-1.11Zm-12.51-6.6c1.83-1.85,2.58-1.79,4.7,.36,1.36,1.38,1.72,2.1,1.42,2.83-.2,.49-.35,.67-1.32,1.67l-4.8-4.86Zm2.79,6.85c-1.19,1.22-1.62,1.09-3.74-1.06-2.12-2.15-2.1-2.79,.13-5.02l6.09,6.16c1.58-1.56,1.93-2.02,2.23-2.71,.6-1.42,.1-2.6-1.99-4.71-3.08-3.12-4.5-3.16-7.43-.27-2.98,2.95-2.96,4.34,.1,7.44,2.7,2.73,4.14,3.19,5.6,1.75,.03-.03,.17-.17,.27-.3l-1.27-1.28Zm-3.41-13.64l-1.26-1.5-5.47,1.92-1.7,.58-.85,.31-.85,.31-.02-.02,.44-.8,.45-.78,.88-1.61,2.8-5.09-1.17-1.4-5.07,9.45,1.62,1.94,10.21-3.29Zm-12.93-15.06c1.53,2.23,1.32,3.32-1,4.91-1.6,1.09-2.77,1.58-3.41,1.36-.62-.2-1.26-.79-1.99-1.85-1.57-2.3-1.31-3.16,1.5-5.09,1.35-.93,2.39-1.29,3.07-1.1,.48,.14,1.18,.82,1.84,1.77m7.37,1.29l-.99-1.45-4.53,3.11-.05-.03c.29-.45,.35-.74,.25-1.26-.16-.8-.59-1.72-1.3-2.77-1.98-2.89-3.67-3.14-6.75-1.03-1.92,1.31-2.73,2.24-2.88,3.34-.14,.97,.27,2.16,1.24,3.58,1.21,1.77,2.22,2.48,3.4,2.39v.02s-1.1,.67-1.1,.67l.99,1.45,11.72-8.03Zm-18.69-12.31c1.27,2.3,1.25,3.2-.07,3.93-.54,.3-.97,.36-1.35,.16-.6-.29-1.3-1.17-2.06-2.54-1.21-2.19-1.15-2.84,.3-3.64,1.29-.71,1.82-.36,3.18,2.1m.56-3.7l.28-.15c1.01-.56,1.65-.09,2.82,2.03,1.28,2.33,1.16,2.95-.87,4.07l-1.05,.58-.04-.04c.22-.39,.27-.62,.18-1.04-.14-.74-.53-1.71-1.15-2.84-.81-1.47-1.55-2.41-2.22-2.78-.68-.39-1.79-.28-2.79,.28-1.96,1.08-2.08,2.5-.46,5.43,1.13,2.05,1.88,2.79,3.06,2.99v.03s-1,.4-1,.4l.85,1.53,5.75-3.17c2.41-1.33,2.56-2.68,.68-6.09-1.86-3.36-2.78-3.88-4.89-2.78l.85,1.54Z" style="fill:#fff; stroke:#fff; stroke-miterlimit:10;"></path></g></svg>