<svg xmlns="http://www.w3.org/2000/svg" xmlns:xlink="http://www.w3.org/1999/xlink" id="Layer_1" x="0px" y="0px" viewBox="0 0 1406 40" xml:space="preserve"><g id="Layer_2_1_">	<path fill="#F9D598" d="M1121.1,13.8c-3.7,1.4-8,0.8-12,0.5c-7.3-0.6-15-0.6-20.9-5.5c-5.3-4.4-10.6-4.9-16.7-2.8   c-4.8,1.6-9.8,2.8-14.7,1c-11.8-4.2-23.4-2.2-35,0.2c-8.5,1.8-16.9,1.7-25.1-1.1c-5.9-2-11.8-3.3-18.1-2.1   c-1.6,0.3-3.4,0.4-4.9-0.4c-3.9-2.3-7.7-1.6-11.5,0.1c-1.4,0.6-2.7,1.1-4.3,1.1c-12.6,0.2-25.1-1.6-37.4-4c-3.8-0.8-7.1-0.5-10.6,1   c-6,2.4-11.6,5.9-18.3,6.3c-1.6,0.1-2.9,1.1-3.5,2.5c-1.2,2.8-3.6,3.8-6.3,4.2c-6.9,1.2-13.8,2.5-20.6,3.7   c-6.2,1.1-12.3-0.4-18.4,0c-18.8,1.2-37.6,1.5-56.3-1c-2.7-0.4-5.3,0-8,0.3c-18.8,2.4-37.5,2-55.8-3.7c-10.3-3.2-20.7-2.4-30.8,1.6   c-9.2,3.6-19.1,6.3-28.7,5.8c-17.8-0.9-35,3.7-52.7,3.2c-4.3-0.1-8.5-0.2-12.8-1.1c-14.8-3.3-29.8-5.1-45-5.1   c-12.5-0.1-24.8,1.7-37.3,1c-21.2-1.2-42.2,1.2-63.1,4.4c-3.9,0.6-8.2,1.4-11.7,2c-2.9,0.5-5,1-8.4,0.9c-2.4,0-5.3-0.3-7-0.6   c-3.8-0.7-4.5-1-6.6-3.3c-0.4-0.4-1.5-1.9-1.9-2.4c-3-4.4-6.7-6.8-12-6c-1.8,0.3-3.6,0.4-5.4,0.8c-7.4,1.7-14.8,2.6-22-0.6   c-1.4-0.6-2.9-0.7-4.4-0.8c-11.1-0.5-22.3-1.1-33.4,0.4c-5.6,0.7-11.3,0.5-16.9-0.4c-4.4-0.7-8.5-0.3-12.8,0.9   c-14.7,4.2-29.9,4.8-45,4.3c-6.4-0.2-12.8-1.6-19.3-2.2c-9.8-0.9-19.5-2.2-29.4-0.8c-2.7,0.4-5.4-0.1-7.9-0.9   c-7.9-2.3-15.8-1.9-23.8-1.2c-1.7,0.1-3.3,0.5-5,0.2c-8.7-1.5-16.9,0.7-24.9,3.6c-5.3,1.9-10.5,2.9-16.1,2.6s-11.4-0.6-16.9,1.1   c-15.7,4.6-31.5,5-47.5,2.3C51.6,20,29.6,21.2,7.6,24.6C4.9,25,1.9,25,0.2,28c0,2.3,0.3,4.7-0.1,7c-0.6,4.2,0.9,5,5.1,5   c465.4-0.1,930.8-0.1,1396.2-0.1c0.7,0,1.3-0.1,2,0c2.2,0.4,2.6-2.5,2.6-2.5s0-14.9,0-21.7c-0.7-0.7-1.4-0.3-2.4-0.6   c-8.5-2.4-16.8-5.5-25.9-3.5c-8.1,1.8-16.2,2-24.3,0.1c-6.8-1.6-13.5-1.6-20.3,0.2c-2.6,0.7-5.2,1.2-7.9,0.8c-7-1-13.4,0.7-20,2.8   c-7.4,2.4-15,4.6-22.9,4.4c-4.2-0.1-8.2,0-12.3,1.2c-7.1,2-15,3.2-21.7,1.1c-7.5-2.3-15.7,0.9-22.6-3.8c-0.4-0.2-1,0-1.5,0.1   c-7.1,1.2-14.3,0.9-21.3,2.2c-3.9,0.7-8.1,1-12.2-0.4C1190.7,20.4,1128.4,11.1,1121.1,13.8z"/></g><g id="Layer_1_1_">	<path d="M1406.1,16.3l0-0.7l0-0.8l0.1-0.3l-0.2-0.1h-0.1c-0.9-0.3-1.7-0.5-2.6-0.8c-7.6-2.2-15.4-4.6-23.8-2.7   c-8.5,1.9-16.4,1.9-24,0.1c-7.1-1.7-13.9-1.6-20.7,0.2c-2.1,0.6-4.9,1.2-7.6,0.8c-7.5-1.1-14.5,0.9-20.4,2.9   c-6.7,2.2-14.6,4.6-22.7,4.4c-3.9-0.1-8.2,0-12.6,1.2c-8.8,2.5-15.7,2.8-21.3,1.1c-3.2-1-6.5-1-9.8-1c-4.6,0-8.9,0-12.7-2.7   c-0.6-0.4-1.2-0.2-1.7-0.1c-0.1,0-0.2,0-0.3,0.1c-3.4,0.6-6.9,0.8-10.3,1c-3.6,0.2-7.4,0.5-11.1,1.2c-4.7,0.9-8.5,0.7-11.9-0.4   h-0.3l0,0c-0.8-0.2-3.1-0.5-9.8-1.4c-5.4-0.8-13.7-1.9-22.3-2.9c-22.1-2.7-34.8-3.4-38-2.2s-6.8,0.9-10.3,0.6l-1.4-0.1   c-0.8-0.1-1.7-0.1-2.6-0.2c-6.4-0.5-13-0.9-18-5.1c-5.3-4.3-10.7-5.2-17.5-2.9c-4.3,1.5-9.4,2.7-14.3,1c-12-4.3-23.6-2.3-35.5,0.2   c-9,1.9-17.1,1.6-24.8-1.1C992.3,3.8,986,2.1,979,3.5c-1.2,0.2-3,0.5-4.4-0.4c-4.6-2.7-8.9-1.4-12.2,0.1c-1.2,0.5-2.5,1-4,1.1   c-11,0.1-22.5-1.1-37.4-4c-4-0.8-7.4-0.5-11.1,1c-1.6,0.6-3.2,1.4-4.7,2.1c-4.2,1.9-8.6,3.9-13.4,4.2c-1.8,0.1-3.4,1.2-4.2,3   c-1.2,2.7-3.6,3.4-5.8,3.8c-3.9,0.7-7.9,1.4-11.5,2c-3.1,0.6-6.1,1.1-9.2,1.6c-3.5,0.6-7.1,0.4-10.5,0.2c-2.6-0.2-5.2-0.3-7.9-0.2   c-22.6,1.5-40,1.2-56.4-0.9c-2.7-0.4-5.3-0.1-8.2,0.3c-20.9,2.7-39.1,1.5-55.7-3.7c-10.1-3.2-20.7-2.6-31.4,1.6   c-11,4.3-20.3,6.2-28.4,5.8c-9.4-0.5-18.8,0.6-27.8,1.6c-8.2,0.9-16.6,1.9-25.1,1.6h-0.5c-4.2-0.1-8.1-0.2-12.2-1.1   c-14.9-3.3-30.1-5.1-45.3-5.2c-5.2,0-10.5,0.3-15.6,0.6h-0.3c-7,0.4-14.3,0.8-21.5,0.4c-21.9-1.3-43.5,1.4-63.5,4.4   c-1.4,0.2-2.9,0.5-4.3,0.7h-0.2c-5.6,0.9-11.4,1.9-17.2,1.8c-5.9-0.1-9.9-2.1-12.7-6.2c-3.1-4.6-7.6-6.6-13.3-5.7   c-0.6,0.1-1.2,0.2-1.8,0.3c-1.2,0.2-2.5,0.3-3.7,0.6c-7,1.6-14.4,2.6-21.6-0.6c-1.5-0.6-3.1-0.8-4.7-0.8l-2-0.1   c-10.4-0.4-21.1-0.9-31.6,0.5c-5.3,0.7-11,0.6-16.8-0.3c-4.3-0.7-8.6-0.4-13.2,0.9c-12.8,3.6-26.6,4.9-44.9,4.2   c-3.7-0.1-7.5-0.7-11.2-1.2c-2.7-0.4-5.4-0.8-8.1-1c-1.3-0.1-2.6-0.2-3.9-0.4h-0.2c-8.3-0.8-16.9-1.6-25.5-0.4   c-2.2,0.3-4.5,0-7.6-0.9c-8.2-2.4-16.4-2-24.1-1.2c-0.4,0-0.8,0.1-1.2,0.1c-1.2,0.1-2.4,0.3-3.6,0.1c-9.2-1.6-18,0.9-25.4,3.6   c-5.4,2-10.6,2.8-15.9,2.6h-0.3c-5.6-0.3-11.3-0.5-16.9,1.1c-14.9,4.4-30.4,5.1-47.3,2.3c-20.1-3.3-41.3-3.1-66.5,0.9   c-0.2-0.4-0.6-0.3-1-0.3c-1.6,0.2-2.9,0.4-4.2,1.1l-0.1,0.1v1.2V27v1.4h0.5v-1.7c0.2-0.1,0.3-0.2,0.5-0.3c0.1-0.1,0.2-0.1,0.4-0.2   S1.6,26,1.8,26c0.1,0,0.2-0.1,0.4-0.1c0.2-0.1,0.5-0.1,0.8-0.1c0.1,0,0.2,0,0.3-0.1c0.4-0.1,0.7-0.1,1.1-0.2c0.4,0,0.8-0.1,1.1-0.2   c3.8-0.6,7.4-1.1,11-1.5c14.7-1.7,28-2.1,40.7-1.1c4.9,0.4,9.6,1,14.4,1.7c4.3,0.7,8.5,1.2,12.6,1.5c10.3,0.7,20.1-0.1,29.7-2.3   c1.9-0.4,3.8-0.9,5.7-1.5c3.3-1,6.7-1.2,10.2-1.2c2.1,0,4.1,0.1,6.2,0.2h0.3c5.5,0.2,10.9-0.6,16.5-2.7c3.4-1.3,7-2.4,10.7-3.2   c4.4-0.9,9.1-1.2,13.9-0.4c1.4,0.2,2.7,0.1,4-0.1c0.4,0,0.8-0.1,1.2-0.1c7.6-0.7,15.6-1.2,23.6,1.2c0.4,0.1,0.9,0.2,1.3,0.4   c1.4,0.4,3,0.6,4.6,0.7c0.7,0,1.5,0,2.3-0.1c8.4-1.2,16.9-0.3,25.2,0.4c1.4,0.1,2.8,0.3,4.1,0.4c2.7,0.2,5.4,0.6,8.1,1   c3.7,0.5,7.6,1.1,11.3,1.2c18.4,0.7,32.4-0.6,45.4-4.3c4.4-1.2,8.5-1.5,12.5-0.9c6,0.9,11.7,1.1,17.2,0.4   c10.4-1.3,21.1-0.9,31.4-0.4l2,0.1c1,0,2.1,0.1,3.1,0.4c0.3,0.1,0.7,0.2,1,0.3c7.6,3.3,15.4,2.3,22.6,0.7c1.2-0.3,2.4-0.4,3.6-0.6   c0.6-0.1,1.2-0.2,1.8-0.3c5.1-0.8,9.1,0.9,11.8,5c1.7,2.6,3.9,4.4,6.6,5.5c0.9,0.4,1.9,0.7,2.9,0.9c1.4,0.3,2.8,0.5,4.4,0.5   c0.4,0,0.7,0,1.1,0c0.2,0,0.5,0,0.7,0c0.3,0,0.5,0,0.8,0c0.5,0,1,0,1.5-0.1c0.2,0,0.4,0,0.6,0c0.5,0,1.1-0.1,1.6-0.1   c0.2,0,0.3,0,0.5,0c0.6-0.1,1.2-0.1,1.8-0.2c0.1,0,0.2,0,0.3,0c0.7-0.1,1.3-0.2,2-0.3h0.1c2.2-0.3,4.3-0.7,6.4-1   c1.5-0.3,3-0.5,4.5-0.7c19.9-3,41.4-5.7,63.2-4.4c7.3,0.4,14.6,0,21.7-0.4h0.1c5.1-0.3,10.5-0.6,15.7-0.6c15,0.1,30.2,1.8,45,5.1   c4.2,0.9,8.2,1,12.5,1.1h0.5c8.5,0.2,17-0.7,25.3-1.7c9-1,18.3-2,27.6-1.6c8.4,0.4,17.9-1.5,29.1-5.9c10.4-4.1,20.6-4.6,30.4-1.5   c14.7,4.6,30.8,6.1,48.8,4.6c1.2-0.1,2.4-0.2,3.6-0.3c1.3-0.1,2.6-0.3,3.9-0.5c2.8-0.4,5.3-0.6,7.8-0.3c16.5,2.2,33.9,2.5,56.7,1   c0.6,0,1.3-0.1,1.9-0.1c1.9,0,3.9,0.1,5.7,0.2c3.5,0.2,7.2,0.5,10.9-0.2c3.1-0.5,6.2-1.1,9.2-1.6c3.8-0.7,7.6-1.4,11.5-2   c0.2,0,0.5-0.1,0.7-0.1c1.7-0.3,3.5-1,4.9-2.5c0.5-0.6,1-1.2,1.3-2.1c0.5-1.2,1.6-2,2.9-2.1c1.9-0.1,3.7-0.4,5.5-1   c2.9-0.8,5.7-2.1,8.4-3.4c0.6-0.3,1.2-0.6,1.8-0.8c0.9-0.4,1.9-0.8,2.8-1.2c0.4-0.2,0.8-0.3,1.3-0.5c0.8-0.3,1.7-0.5,2.5-0.6   c2.1-0.3,4.2-0.3,6.5,0.2c14.9,2.9,26.6,4.1,37.7,4c1.8,0,3.3-0.6,4.6-1.2c4.5-1.9,7.7-2,10.8-0.2c1.8,1.1,4,0.8,5.4,0.5   c6.6-1.3,12.7,0.3,17.8,2.1c6.7,2.3,13.8,2.9,21.3,1.9c1.4-0.2,2.8-0.4,4.3-0.7c6.6-1.4,13-2.6,19.5-2.7c5,0,10.1,0.6,15.1,2.4   c0.7,0.2,1.3,0.4,2,0.6c4.6,1,9.3-0.2,13.3-1.6c6.3-2.1,11.2-1.3,16,2.7c4.4,3.7,9.8,4.6,15.3,5.1c0.8,0.1,1.6,0.1,2.3,0.2   c0.4,0,0.8,0.1,1.2,0.1h0.1c0.8,0.1,1.7,0.1,2.5,0.2l1.4,0.1c3.7,0.3,7.5,0.7,11-0.6c6.4-2.4,57.9,4.9,67.7,6.4   c0.2,0,0.3,0,0.5,0.1c0.3,0,0.5,0.1,0.7,0.1c0.1,0,0.2,0,0.2,0c0.1,0,0.2,0,0.2,0c1.1,0.4,2.3,0.6,3.5,0.8c1.2,0.2,2.5,0.2,3.8,0.2   c1.6,0,3.3-0.2,5.2-0.6c3.6-0.7,7.3-0.9,10.9-1.1c0.9-0.1,1.7-0.1,2.6-0.2c2.6-0.2,5.3-0.4,7.9-0.9c0.1,0,0.2-0.1,0.4-0.1   c0.3-0.1,0.5-0.1,0.5-0.1c4.3,2.9,9,2.9,13.6,2.9c3.1,0,6.3,0,9.3,1c5.9,1.8,13.1,1.4,22.2-1.1c4.2-1.2,8.3-1.3,12.1-1.2   c7.3,0.2,14.4-1.7,20.7-3.6c0.8-0.3,1.7-0.5,2.5-0.8c3.3-1.1,6.8-2.1,10.6-2.7c0.4-0.1,0.8-0.1,1.3-0.2c0.8-0.1,1.7-0.2,2.6-0.2   c1.7-0.1,3.5,0,5.3,0.3c2.2,0.3,4.3,0,6.2-0.4c0.7-0.1,1.4-0.3,2-0.5c1-0.3,2-0.5,2.9-0.7c4.1-0.8,8.3-0.9,12.6-0.3   c0.6,0.1,1.2,0.2,1.8,0.3c0.9,0.2,1.7,0.3,2.6,0.5c3.8,0.9,7.7,1.4,11.7,1.4c0.1,0,0.2,0,0.2,0c0.1,0,0.2,0,0.3,0   c4,0,8.1-0.5,12.4-1.4c1-0.2,2-0.4,3-0.5c0.4,0,0.9-0.1,1.3-0.1c6.5-0.4,12.7,1.5,18.7,3.3l0.2,0.1c0.8,0.2,1.6,0.5,2.4,0.7   c0.1,0,0.2,0.1,0.2,0.1"/></g></svg>